<?xml version="1.0" standalone="no"?>
<!DOCTYPE svg PUBLIC "-//W3C//DTD SVG 20010904//EN"
 "http://www.w3.org/TR/2001/REC-SVG-20010904/DTD/svg10.dtd">
<svg version="1.0" xmlns="http://www.w3.org/2000/svg"
 width="1024.000000pt" height="1024.000000pt" viewBox="0 0 1024.000000 1024.000000"
 preserveAspectRatio="xMidYMid meet">

<g transform="translate(0.000000,1024.000000) scale(0.100000,-0.100000)"
fill="#000000" stroke="none">
<path d="M5021 9034 c-140 -38 -274 -168 -297 -290 -6 -31 -9 -33 -53 -39
-190 -22 -541 -124 -782 -227 -257 -109 -548 -270 -635 -350 l-40 -37 -30 18
c-52 31 -126 51 -194 51 -126 0 -248 -87 -285 -205 -21 -69 -22 -165 -1 -235
l16 -53 -63 -71 c-226 -256 -359 -452 -508 -748 -94 -187 -122 -255 -183 -448
-45 -145 -106 -392 -106 -434 0 -20 -8 -24 -75 -34 -339 -53 -461 -442 -213
-684 50 -49 126 -84 205 -95 33 -4 44 -11 48 -27 2 -11 12 -57 20 -101 9 -44
28 -130 41 -191 127 -586 455 -1153 954 -1654 111 -112 346 -293 515 -399 116
-72 370 -202 500 -256 237 -98 560 -190 770 -218 l90 -13 20 -55 c38 -105 108
-185 206 -235 141 -71 341 -44 459 62 61 54 120 149 120 191 0 18 4 33 9 33 6
0 63 7 128 15 287 38 643 155 977 322 146 74 335 180 363 205 13 12 27 17 34
12 52 -32 179 -19 282 28 85 39 152 110 204 216 36 72 38 81 38 173 l0 97 71
74 c237 246 486 649 623 1011 69 180 153 496 175 658 l7 46 52 6 c154 19 297
159 326 323 22 121 -18 237 -116 340 -67 70 -130 102 -224 116 l-66 10 -7 57
c-7 70 -54 258 -96 387 -192 593 -601 1206 -1040 1560 -455 367 -974 619
-1478 719 -73 14 -161 29 -194 33 l-62 7 -11 50 c-16 70 -40 111 -99 170 -105
105 -255 147 -395 109z m190 -169 c92 -33 167 -145 155 -232 -16 -121 -120
-212 -242 -213 -64 0 -112 20 -166 68 -162 145 -66 390 153 392 31 0 76 -7
100 -15z m-467 -371 c38 -93 144 -191 237 -219 l59 -18 0 -329 0 -328 -40 0
c-57 0 -252 -28 -340 -49 -186 -45 -383 -114 -490 -173 -25 -14 -80 -44 -122
-67 -83 -45 -198 -126 -211 -148 -4 -7 -13 -13 -19 -13 -27 0 -518 466 -518
492 0 10 9 36 20 58 25 49 28 172 5 227 -19 45 -27 37 133 137 306 192 610
322 959 411 91 23 271 62 298 64 6 1 18 -20 29 -45z m933 11 c233 -47 377 -91
611 -184 313 -125 733 -389 960 -605 39 -38 72 -72 72 -77 0 -5 -22 -32 -49
-61 -27 -29 -59 -65 -71 -80 -20 -27 -23 -27 -50 -13 -37 19 -142 19 -179 0
-67 -34 -108 -121 -97 -202 5 -40 4 -43 -51 -93 -31 -29 -92 -79 -135 -112
l-79 -60 -47 44 c-254 236 -590 414 -922 488 -121 27 -287 50 -367 50 l-63 0
0 334 0 334 37 7 c89 16 200 109 244 204 16 34 30 50 43 51 10 0 75 -11 143
-25z m-2591 -524 c52 -24 79 -58 94 -120 22 -92 -30 -189 -110 -205 -132 -26
-211 28 -226 156 -5 47 -3 64 16 103 13 26 37 55 54 66 40 24 118 24 172 0z
m-203 -473 c54 -29 168 -31 245 -4 l53 18 102 -99 c132 -126 310 -289 364
-332 l42 -34 -87 -96 c-99 -109 -209 -253 -272 -356 -153 -250 -278 -630 -298
-910 l-7 -99 -391 -1 -392 -2 -6 39 c-14 90 -73 174 -161 232 -30 21 -55 41
-55 47 0 23 62 284 90 379 93 310 274 678 459 930 68 92 256 310 268 310 2 0
23 -10 46 -22z m4601 -6 c8 -16 50 -73 92 -128 237 -302 444 -691 566 -1059
29 -89 98 -366 98 -395 0 -8 -20 -28 -44 -43 -73 -46 -147 -154 -160 -233 l-7
-41 -337 -6 c-186 -3 -363 -3 -395 0 l-57 6 0 56 c0 178 -93 526 -200 753 -77
165 -169 310 -266 424 l-52 60 33 27 c19 15 74 65 123 112 l90 85 28 -15 c41
-21 81 -18 139 9 85 39 140 123 133 200 -4 39 -2 43 87 128 49 48 96 87 102
88 7 0 19 -13 27 -28z m-2209 -82 c329 -23 618 -115 885 -280 391 -243 657
-584 804 -1030 115 -348 133 -658 60 -1020 -74 -364 -223 -644 -489 -919 -240
-247 -475 -394 -810 -505 -179 -59 -287 -77 -491 -83 -274 -9 -511 28 -763
116 -174 62 -261 103 -391 188 -333 218 -630 576 -757 912 -37 98 -100 367
-114 482 -14 127 -6 419 15 537 68 372 184 631 412 917 146 183 377 371 585
476 211 106 519 192 747 208 157 12 155 12 307 1z m1829 -66 c46 -46 -16 -125
-73 -94 -29 15 -37 67 -15 91 21 23 67 25 88 3z m1402 -1603 c176 -80 180
-344 5 -417 -49 -21 -154 -18 -199 5 -48 24 -118 119 -127 171 -15 90 33 194
110 237 52 29 151 31 211 4z m-6687 -17 c50 -63 4 -154 -77 -154 -41 0 -64 17
-76 58 -11 34 2 60 46 93 51 36 80 37 107 3z m-189 -219 c0 -3 6 -19 15 -35
10 -19 20 -27 30 -24 8 4 15 1 15 -5 0 -6 -7 -11 -15 -11 -10 0 -7 -7 9 -25
13 -14 28 -25 34 -25 11 0 25 -30 18 -37 -8 -8 -27 8 -21 18 3 5 0 6 -8 3 -21
-8 -64 49 -82 108 -16 56 -20 98 -5 60 5 -12 9 -24 10 -27z m437 -7 c-3 -8 -6
-5 -6 6 -1 11 2 17 5 13 3 -3 4 -12 1 -19z m-60 -90 c-3 -8 -6 -5 -6 6 -1 11
2 17 5 13 3 -3 4 -12 1 -19z m17 -18 c-10 -16 -19 -28 -21 -26 -5 5 22 56 30
56 5 0 0 -13 -9 -30z m1003 -21 c17 -314 116 -652 259 -890 19 -31 34 -62 34
-69 0 -7 -11 -25 -25 -42 -36 -43 -42 -75 -18 -100 19 -19 23 -19 79 -4 32 8
61 12 65 8 3 -4 27 -35 52 -68 157 -208 402 -416 639 -543 222 -119 525 -217
745 -242 54 -6 117 -13 141 -15 l42 -5 0 -320 0 -319 -22 0 c-32 0 -116 -41
-157 -76 -41 -34 -105 -131 -122 -182 -6 -20 -15 -41 -19 -45 -12 -13 -239 31
-415 80 -112 32 -421 147 -536 201 -171 79 -419 231 -584 358 -202 155 -519
500 -697 758 -63 92 -170 279 -223 390 -122 259 -226 612 -251 857 -6 65 -6
66 22 78 55 23 143 119 183 199 l22 44 392 -4 392 -4 2 -45z m5029 0 c22 -62
89 -139 150 -175 51 -30 51 -11 3 -254 -40 -206 -123 -460 -222 -681 -44 -97
-176 -330 -248 -434 -72 -107 -223 -291 -251 -309 -14 -8 -24 -4 -50 20 -91
85 -177 117 -318 118 -88 1 -112 -2 -148 -20 -35 -18 -44 -19 -50 -8 -4 8 -79
88 -165 178 -86 91 -157 167 -157 169 0 3 27 32 61 64 70 67 214 252 285 368
151 245 247 522 284 815 5 46 10 107 10 136 0 28 2 53 4 55 3 2 182 5 399 7
l395 2 18 -51z m-6066 -14 c0 -9 -82 -46 -93 -42 -7 3 -3 8 8 12 11 3 34 13
50 20 36 16 35 16 35 10z m-220 -13 c0 -5 10 -14 23 -20 12 -6 16 -11 9 -11
-19 -1 -52 18 -52 29 0 6 5 10 10 10 6 0 10 -4 10 -8z m98 -39 c-10 -2 -26 -2
-35 0 -10 3 -2 5 17 5 19 0 27 -2 18 -5z m4718 -1550 c67 -65 140 -139 164
-165 l42 -47 -30 -38 c-43 -56 -59 -91 -72 -163 -22 -121 14 -267 91 -368 22
-29 37 -57 34 -61 -8 -14 -133 -85 -264 -151 -269 -134 -606 -248 -871 -295
-139 -25 -145 -23 -166 34 -26 74 -84 151 -144 192 -46 32 -76 45 -147 65 -10
3 -13 76 -13 324 l0 320 23 0 c66 0 253 23 327 41 274 64 495 152 705 279 59
36 197 139 200 149 0 1 55 -52 121 -116z m612 -275 c30 -7 39 -14 30 -19 -7
-5 -21 -6 -32 -3 -11 4 -16 2 -12 -4 3 -6 2 -13 -4 -17 -5 -3 -10 -15 -10 -25
0 -13 -9 -22 -25 -26 -14 -3 -32 -19 -41 -35 -8 -16 -33 -41 -55 -56 -32 -21
-45 -25 -66 -17 -62 22 -86 113 -42 160 51 54 149 71 257 42z m-318 -284 c0
-11 5 -14 17 -10 9 4 20 1 24 -6 4 -7 11 -9 15 -5 4 3 1 13 -5 21 -10 12 -9
15 8 13 13 -1 21 -8 21 -19 0 -11 7 -18 20 -18 11 0 20 -4 20 -10 0 -5 9 -10
20 -10 13 0 20 -7 20 -20 0 -18 7 -20 70 -20 63 0 70 2 70 20 0 11 5 20 10 20
6 0 10 -4 10 -10 0 -5 5 -10 10 -10 6 0 10 9 10 20 0 17 7 20 50 20 28 0 50
-4 50 -9 0 -5 7 -11 15 -13 13 -2 11 -9 -10 -38 -95 -128 -286 -147 -394 -39
-48 48 -88 139 -61 139 6 0 10 -7 10 -16z m-1659 -617 c38 -19 44 -26 43 -52
-1 -16 -2 -46 -3 -66 -2 -78 -136 -179 -256 -194 -31 -4 -58 -12 -61 -17 -10
-16 -34 13 -47 61 -15 49 -12 117 6 128 6 4 8 -4 3 -21 -5 -19 -3 -26 4 -21 6
4 20 -1 30 -10 24 -22 99 -15 139 12 14 10 29 17 32 16 3 -1 6 24 7 55 0 44
-1 50 -7 27 -18 -71 -54 -105 -112 -105 -45 0 -79 36 -79 83 0 37 66 107 101
107 13 0 30 4 37 9 29 18 117 11 163 -12z m99 -350 c0 -2 -14 -16 -32 -33 -28
-25 -26 -17 7 23 9 11 25 17 25 10z m-187 -94 c-7 -2 -19 -2 -25 0 -7 3 -2 5
12 5 14 0 19 -2 13 -5z"/>
<path d="M4590 8040 c-30 -30 -26 -76 9 -111 35 -35 70 -37 99 -6 47 50 12
137 -54 137 -21 0 -42 -8 -54 -20z"/>
<path d="M4119 8017 c-60 -40 -86 -127 -56 -187 18 -36 74 -70 116 -70 48 0
99 33 117 75 19 45 17 71 -6 123 -15 33 -29 47 -62 62 -55 25 -68 25 -109 -3z"/>
<path d="M3766 7724 c-37 -36 -3 -114 43 -99 42 13 48 57 13 98 -19 21 -36 22
-56 1z"/>
<path d="M5610 8063 c-57 -51 -50 -157 11 -188 47 -25 93 -19 127 16 39 40 48
88 26 134 -32 67 -111 85 -164 38z"/>
<path d="M6187 7901 c-54 -35 -74 -88 -57 -150 26 -96 141 -128 210 -58 56 58
52 129 -11 189 -46 44 -95 50 -142 19z"/>
<path d="M6586 7614 c-59 -60 -16 -174 67 -174 48 0 87 45 87 102 0 85 -96
129 -154 72z"/>
<path d="M2968 7088 c-29 -25 -48 -63 -48 -100 0 -49 55 -108 101 -108 98 0
143 131 68 194 -34 29 -94 35 -121 14z"/>
<path d="M2592 6510 c-98 -60 -94 -200 8 -253 134 -69 249 113 143 228 -45 48
-98 57 -151 25z"/>
<path d="M2488 5980 c-27 -28 -30 -36 -25 -73 10 -77 91 -113 149 -67 30 23
39 60 26 106 -19 69 -97 87 -150 34z"/>
<path d="M7287 6833 c-15 -15 -7 -68 13 -80 16 -11 21 -10 30 6 16 30 12 59
-9 71 -23 12 -26 12 -34 3z"/>
<path d="M7503 6631 c-108 -49 -134 -203 -50 -298 88 -100 225 -94 296 13 38
58 46 107 27 161 -43 123 -159 175 -273 124z m46 -188 c-2 -1 5 -9 16 -17 16
-12 17 -15 5 -16 -23 0 -40 21 -40 50 1 24 1 24 12 5 7 -11 10 -21 7 -22z"/>
<path d="M7630 5990 c-56 -56 -17 -160 61 -160 32 0 79 50 79 84 0 23 -24 63
-50 83 -23 19 -68 15 -90 -7z"/>
<path d="M5075 7185 c-58 -57 3 -148 80 -119 18 7 45 55 45 79 0 25 -46 65
-75 65 -14 0 -37 -11 -50 -25z"/>
<path d="M4512 7127 c-23 -27 -24 -62 -2 -82 20 -18 24 -18 48 -4 30 16 41 61
21 85 -14 17 -53 18 -67 1z"/>
<path d="M5687 7112 c-23 -25 -21 -64 2 -93 l19 -24 29 21 c31 23 43 75 22
100 -16 20 -53 18 -72 -4z"/>
<path d="M4930 6790 l-515 -5 -57 -27 c-66 -31 -149 -105 -184 -163 -58 -100
-55 -57 -59 -972 -3 -464 0 -908 4 -989 9 -139 11 -150 44 -218 46 -92 121
-167 213 -213 l72 -35 563 -4 c310 -2 624 0 697 5 125 8 137 11 210 46 94 47
173 123 210 202 l27 58 3 859 2 859 -158 156 c-170 168 -394 379 -450 424 -26
20 -44 26 -71 25 -20 -1 -268 -5 -551 -8z m462 -416 c-4 -275 -2 -282 71 -335
l42 -30 238 3 237 3 0 -745 c0 -704 -1 -747 -19 -785 -23 -50 -62 -86 -127
-119 l-52 -26 -646 0 c-537 0 -652 2 -681 14 -52 22 -120 91 -144 145 -20 48
-20 58 -21 1011 -1 1066 -7 973 67 1044 66 63 76 64 583 63 l455 -1 -3 -242z
m431 -91 l107 -103 -174 0 -173 0 -7 46 c-3 26 -6 103 -6 172 l0 125 73 -69
c39 -37 120 -115 180 -171z"/>
<path d="M4579 6343 c-37 -23 -59 -64 -59 -112 0 -59 48 -111 110 -118 39 -4
51 0 87 26 29 21 46 42 54 70 10 35 9 43 -11 76 -43 69 -123 95 -181 58z"/>
<path d="M5049 6301 c-34 -34 -37 -64 -10 -107 38 -62 112 -68 154 -12 31 41
27 86 -11 120 -44 39 -93 38 -133 -1z"/>
<path d="M4539 5802 c-22 -19 -31 -37 -31 -57 0 -20 9 -38 31 -57 l31 -28 576
0 576 0 29 29 c45 45 37 100 -18 129 -16 9 -178 12 -592 12 l-571 0 -31 -28z"/>
<path d="M4539 5461 c-37 -37 -37 -70 -1 -104 l28 -27 578 0 578 0 29 29 c36
37 37 70 3 105 l-27 26 -579 0 -580 0 -29 -29z"/>
<path d="M4570 5153 c-50 -19 -73 -70 -50 -114 24 -43 36 -44 638 -44 l574 0
24 28 c32 37 31 77 -2 108 l-26 24 -571 2 c-315 1 -579 -1 -587 -4z"/>
<path d="M4571 4801 c-13 -3 -33 -19 -45 -34 -25 -33 -15 -70 27 -101 28 -21
35 -21 585 -21 306 0 569 3 584 8 32 9 62 59 54 91 -3 12 -15 31 -26 44 l-21
22 -567 -1 c-312 -1 -578 -4 -591 -8z"/>
<path d="M3673 6305 c-27 -19 -46 -75 -37 -109 16 -65 109 -89 155 -40 36 38
34 107 -4 140 -32 28 -82 32 -114 9z"/>
<path d="M6560 6073 c-22 -9 -30 -24 -30 -59 0 -44 20 -66 55 -62 38 4 57 39
43 79 -8 24 -37 51 -50 48 -2 0 -10 -3 -18 -6z"/>
<path d="M3594 5691 c-32 -20 -64 -74 -64 -111 0 -36 31 -90 61 -105 36 -19
98 -19 123 0 78 59 73 187 -9 221 -46 19 -74 18 -111 -5z"/>
<path d="M6603 5603 c-36 -7 -63 -50 -63 -99 0 -58 30 -93 87 -101 37 -5 45
-2 73 25 24 24 30 39 30 72 0 23 -5 50 -11 62 -10 18 -68 50 -86 47 -4 -1 -18
-4 -30 -6z"/>
<path d="M3648 5071 c-27 -24 -33 -36 -33 -71 0 -35 6 -47 33 -71 56 -50 127
-29 152 45 13 41 2 75 -36 105 -37 29 -77 27 -116 -8z"/>
<path d="M6479 4941 c-34 -34 -39 -44 -39 -86 0 -136 156 -170 219 -48 27 53
3 131 -49 158 -51 26 -88 20 -131 -24z"/>
<path d="M5085 3944 c-32 -35 -33 -83 -2 -112 32 -30 61 -27 91 9 39 46 32 89
-21 117 -31 17 -41 15 -68 -14z"/>
<path d="M2513 5043 c-31 -6 -81 -66 -88 -107 -17 -88 96 -175 175 -134 36 20
70 75 70 117 0 48 -33 99 -75 117 -35 14 -42 15 -82 7z"/>
<path d="M2860 4401 c-90 -19 -169 -82 -212 -169 -34 -70 -33 -196 3 -272 69
-146 231 -215 382 -164 56 19 138 90 171 148 90 156 25 356 -140 432 -55 26
-148 37 -204 25z m91 -162 c11 -5 17 -14 14 -20 -10 -15 -25 -10 -26 9 0 13
-2 14 -6 2 -3 -8 -12 -19 -19 -23 -8 -4 -14 -16 -14 -25 0 -9 -7 -26 -16 -37
-11 -15 -18 -17 -31 -9 -15 9 -19 34 -14 83 1 6 20 14 44 19 23 6 43 10 45 11
2 1 12 -4 23 -10z m89 -37 c99 -99 37 -262 -99 -262 -16 0 -33 5 -36 10 -4 6
-10 8 -14 6 -11 -7 -51 23 -50 37 0 9 2 9 6 0 2 -7 11 -13 19 -13 8 0 14 -5
14 -11 0 -8 5 -8 15 1 12 10 15 10 15 -3 0 -11 10 -15 34 -14 28 1 36 6 41 25
4 18 10 22 25 17 11 -4 20 -3 20 2 0 15 -41 13 -47 -3 -6 -15 -56 -18 -88 -4
-19 8 -19 9 3 9 15 1 22 7 22 21 0 13 7 20 20 20 13 0 20 7 20 20 0 13 7 20
20 20 16 0 20 7 20 30 0 24 4 30 21 30 11 0 17 5 14 10 -3 6 -17 10 -31 10
-13 0 -24 5 -24 10 0 6 9 10 20 10 11 0 20 5 20 10 0 9 -14 14 -32 11 -5 0 -8
8 -8 19 0 30 16 25 60 -18z m-232 -187 c-3 -3 -9 2 -12 12 -6 14 -5 15 5 6 7
-7 10 -15 7 -18z"/>
<path d="M3425 3631 c-130 -56 -60 -267 74 -220 70 24 97 141 44 191 -31 29
-86 42 -118 29z"/>
<path d="M3892 3255 c-59 -50 -66 -125 -16 -184 97 -116 269 14 199 149 -32
62 -129 80 -183 35z"/>
<path d="M4515 3087 c-19 -16 -28 -35 -32 -68 -5 -39 -2 -48 25 -77 63 -68
162 -25 162 70 0 83 -94 128 -155 75z"/>
<path d="M7746 5123 c-4 -9 -2 -21 3 -26 15 -15 41 0 41 23 0 25 -35 28 -44 3z"/>
<path d="M7579 4738 c-61 -67 -64 -135 -7 -183 87 -73 222 18 194 132 -4 14
-22 41 -41 60 -49 49 -95 47 -146 -9z"/>
<path d="M7221 4110 c-43 -43 -43 -95 -1 -144 37 -42 78 -53 118 -32 63 32 80
106 39 167 -20 30 -28 34 -74 37 -45 3 -54 0 -82 -28z"/>
<path d="M6040 3261 c-54 -30 -81 -79 -81 -144 0 -103 52 -157 149 -157 100 0
158 65 150 166 -10 117 -123 187 -218 135z"/>
<path d="M5576 3054 c-22 -21 -31 -64 -19 -83 5 -9 23 -22 38 -30 25 -12 32
-12 54 0 37 21 55 62 40 91 -7 13 -17 26 -23 30 -19 13 -74 8 -90 -8z"/>
<path d="M3964 9001 c-47 -28 -64 -59 -64 -112 0 -57 32 -102 85 -119 67 -22
148 42 148 117 0 54 -28 102 -68 119 -45 19 -64 18 -101 -5z"/>
<path d="M6115 8955 c-37 -36 -35 -97 4 -136 39 -39 75 -38 112 2 42 45 44
101 3 137 -35 30 -87 30 -119 -3z"/>
<path d="M6627 8763 c-13 -12 -7 -58 9 -81 21 -30 54 -25 73 9 13 24 13 29 -2
53 -17 25 -63 36 -80 19z"/>
<path d="M7097 8532 c-20 -22 -22 -83 -5 -100 33 -33 98 5 98 56 0 54 -60 81
-93 44z"/>
<path d="M7214 8405 c-3 -14 -3 -36 0 -50 5 -21 12 -25 41 -25 45 0 74 38 57
75 -10 21 -19 25 -52 25 -34 0 -41 -4 -46 -25z"/>
<path d="M7665 8069 c-66 -58 -65 -141 2 -211 52 -54 140 -31 177 46 32 68 8
146 -55 178 -50 26 -83 22 -124 -13z"/>
<path d="M8262 7383 c-67 -33 -85 -132 -33 -184 24 -23 38 -29 73 -29 49 0 55
4 86 44 70 91 -26 219 -126 169z"/>
<path d="M1874 7336 c-28 -28 -34 -42 -34 -76 0 -34 6 -48 34 -76 27 -27 42
-34 73 -34 96 0 135 138 56 200 -40 32 -89 26 -129 -14z"/>
<path d="M1603 6590 c-62 -25 -69 -113 -12 -164 27 -23 38 -27 68 -22 54 8 83
49 78 106 -8 72 -66 107 -134 80z"/>
<path d="M8543 6518 c-29 -33 -35 -57 -22 -95 15 -46 60 -69 100 -52 60 24 76
119 26 154 -32 22 -80 19 -104 -7z"/>
<path d="M1583 4580 c-25 -10 -53 -58 -53 -90 0 -59 73 -120 122 -101 59 23
90 89 64 139 -29 56 -77 74 -133 52z"/>
<path d="M8567 4559 c-23 -13 -47 -62 -47 -94 0 -16 12 -38 29 -56 72 -72 183
-2 151 95 -6 20 -21 43 -33 51 -24 17 -74 19 -100 4z"/>
<path d="M8264 3810 c-11 -4 -33 -22 -47 -40 -37 -44 -36 -89 4 -135 27 -30
37 -35 76 -35 36 0 50 6 74 29 41 41 41 108 2 150 -30 32 -76 45 -109 31z"/>
<path d="M2054 3475 c-38 -58 27 -134 77 -89 37 34 11 114 -37 114 -14 0 -30
-10 -40 -25z"/>
<path d="M2454 3110 c-60 -24 -83 -114 -44 -177 20 -34 84 -59 120 -48 29 9
68 61 76 100 8 44 -26 102 -72 121 -38 16 -50 16 -80 4z"/>
<path d="M2852 2660 c-31 -13 -55 -71 -43 -104 13 -33 49 -56 89 -56 67 0 107
87 65 139 -20 25 -77 35 -111 21z"/>
<path d="M3550 2360 c-40 -40 -17 -110 35 -110 26 0 55 33 55 63 0 19 -42 67
-60 67 -5 0 -19 -9 -30 -20z"/>
<path d="M6677 2362 c-38 -42 -11 -122 42 -122 25 0 71 42 71 65 0 20 -19 57
-34 67 -20 14 -63 8 -79 -10z"/>
<path d="M6132 2197 c-47 -26 -69 -85 -47 -127 28 -54 119 -68 159 -25 48 51
41 110 -16 145 -38 23 -63 25 -96 7z"/>
<path d="M4785 1644 c-485 -25 -901 -53 -1000 -68 -55 -8 -143 -17 -195 -21
-109 -7 -241 -26 -385 -56 -192 -39 -278 -73 -341 -135 -33 -31 -36 -39 -31
-72 4 -23 17 -47 35 -63 34 -30 266 -125 342 -139 29 -6 75 -17 102 -25 122
-36 750 -109 1188 -137 298 -20 1021 -17 1320 5 600 44 869 74 1135 128 241
49 293 65 370 116 161 106 129 194 -94 263 -89 27 -210 58 -321 81 -135 28
-724 90 -1035 109 -178 11 -954 21 -1090 14z"/>
</g>
</svg>
